<?xml version="1.0" encoding="UTF-8" standalone="no"?>
<svg
   version="1.1"
   width="81mm"
   height="90mm"
   viewBox="0 0 10.885039 19.671756"
   fit=""
   preserveAspectRatio="xMidYMid meet"
   focusable="false"
   id="svg11"
   sodipodi:docname="temp.svg"
   inkscape:version="1.1.1 (c3084ef, 2021-09-22)"
   xmlns:inkscape="http://www.inkscape.org/namespaces/inkscape"
   xmlns:sodipodi="http://sodipodi.sourceforge.net/DTD/sodipodi-0.dtd"
   xmlns="http://www.w3.org/2000/svg"
   xmlns:svg="http://www.w3.org/2000/svg">
  <defs
     id="defs15" />
  <sodipodi:namedview
     id="namedview13"
     pagecolor="#ffffff"
     bordercolor="#666666"
     borderopacity="1.0"
     inkscape:pageshadow="2"
     inkscape:pageopacity="0.0"
     inkscape:pagecheckerboard="true"
     showgrid="false"
     inkscape:zoom="1.6626506"
     inkscape:cx="147.05435"
     inkscape:cy="197.87681"
     inkscape:window-width="1469"
     inkscape:window-height="912"
     inkscape:window-x="0"
     inkscape:window-y="25"
     inkscape:window-maximized="0"
     inkscape:current-layer="svg11"
     units="mm"
     inkscape:document-units="mm" />
  <path
     d="m 10.36046,0.9835878 h 3.934351 V 2.9507636 H 10.36046 V 0.9835878 m 0,3.9343515 h 3.934351 V 6.8851149 H 10.36046 V 4.9179393 m 0,3.9343508 h 3.934351 V 10.819467 H 11.09815 L 10.36046,9.9342381 v -1.081948 m 3.934351,3.9343529 v 1.967176 h -1.967175 c 0,-0.678676 -0.09836,-1.347516 -0.285242,-1.967176 h 2.252417 M 10.36046,14.753819 A 4.9179393,4.9179393 0 0 1 5.4425192,19.671758 4.9179393,4.9179393 0 0 1 0.5245808,14.753819 c 0,-1.613085 0.7770345,-3.039287 1.9671754,-3.934352 V 2.9507636 A 2.9507636,2.9507636 0 0 1 5.4425192,0 2.9507636,2.9507636 0 0 1 8.3932832,2.9507636 v 7.8687034 c 1.190142,0.895065 1.9671768,2.321267 1.9671768,3.934352 M 4.4589312,5.9015272 v 6.0687378 c -1.150797,0.40327 -1.967175,1.495053 -1.967175,2.783554 a 2.9507636,2.9507636 0 0 0 2.950763,2.950763 2.9507636,2.9507636 0 0 0 2.950764,-2.950763 c 0,-1.288501 -0.816377,-2.380284 -1.967176,-2.783554 V 5.9015272 H 4.4589312 M 0.5245808,0.9835878 V 2.9507636 H -3.4097707 V 0.9835878 h 3.9343515 m 0,3.9343515 V 6.8851149 H -3.4097707 V 4.9179393 h 3.9343515 m 0,3.9343508 v 1.081948 L -0.2131101,10.819467 H -3.4097707 V 8.8522901 h 3.9343515 m -3.9343515,3.9343529 h 2.2524163 c -0.1868818,0.61966 -0.2852405,1.2885 -0.2852405,1.967176 h -1.9671758 z"
     fill="#ffffff"
     id="path9"
     style="stroke-width:0.983591" />
</svg>
