<?xml version="1.0" encoding="UTF-8"?>
<svg width="73px" height="29px" viewBox="0 0 73 29" version="1.1" xmlns="http://www.w3.org/2000/svg" xmlns:xlink="http://www.w3.org/1999/xlink">
    <!-- Generator: Sketch 48.1 (47250) - http://www.bohemiancoding.com/sketch -->
    <title>Egain-Logo-RGB-2color-Black</title>
    <desc>Created with Sketch.</desc>
    <defs></defs>
    <g id="Our-platform" stroke="none" stroke-width="1" fill="none" fill-rule="evenodd" transform="translate(-232.000000, -106.000000)">
        <g id="Meny" transform="translate(0.000000, 95.000000)">
            <g id="Egain-Logo-RGB-2color-Black" transform="translate(232.000000, 11.000000)">
                <polygon id="Fill-1" fill="#0A0B09" points="0.0511764706 29 72.5324118 29 72.5324118 0.378705882 0.0511764706 0.378705882"></polygon>
                <polyline id="Fill-3" fill="#FFFFFE" points="9.60411765 6.30835294 9.60411765 5.46820588 5.09035294 5.46820588 5.09035294 23.896 9.60411765 23.896 9.60411765 23.055 6.1335 23.055 6.1335 6.30835294 9.60411765 6.30835294"></polyline>
                <path d="M10.9048529,13.3451176 C11.2144706,11.9531176 12.6678824,10.9031471 14.2850588,10.9031471 C15.8988235,10.9031471 17.313,11.9300882 17.6465,13.3442647 L17.6490588,14.2159706 L10.9031471,14.2159706 L10.9048529,13.3451176 Z M9.87791176,16.8208529 C10.4246471,18.6521176 12.2661471,19.9289706 14.3592647,19.9289706 C16.3227353,19.9289706 17.9416176,18.9404118 18.7041471,17.2771765 L17.7224118,16.8268235 C17.1441176,18.1719118 15.9227059,18.9412647 14.3592647,18.9412647 C12.7378235,18.9412647 11.2537059,17.8921471 10.9048529,16.501 L10.9031471,15.0927941 L18.6742941,15.0927941 L18.6742941,13.0227059 C18.1301176,11.2025294 16.327,9.9325 14.2850588,9.9325 C12.2141176,9.9325 10.4033235,11.2025294 9.87791176,13.0218529 L9.87791176,16.8208529 Z" id="Fill-4" fill="#FFFFFE"></path>
                <polyline id="Fill-5" fill="#FFFFFE" points="19.0035294 23.055 19.0035294 23.896 23.5172941 23.896 23.5172941 5.46820588 19.0035294 5.46820588 19.0035294 6.30835294 22.4741471 6.30835294 22.4741471 23.055 19.0035294 23.055"></polyline>
                <path d="M35.3433235,16.0515 C34.8307059,17.2712059 33.4813529,18.0917353 31.9852941,18.0917353 C30.3450882,18.0917353 28.8857059,17.0972059 28.5138235,15.7273824 L28.5112647,15.7069118 L28.5138235,13.2683529 C28.8874118,11.9079118 30.3476471,10.9219118 31.9852941,10.9219118 C33.4779412,10.9219118 34.8272941,11.7347647 35.3433235,12.9442353 L35.3492941,12.9740882 L35.3433235,16.0515 Z M31.9119412,23.0302647 C34.0195588,23.0302647 35.8115882,21.8335882 36.3745294,20.0509412 L36.3745294,10.2097059 L35.3859706,10.2097059 L35.3859706,11.5641765 L35.2477941,11.4004118 C34.4528529,10.4536471 33.2485,9.9325 31.8556471,9.9325 C29.7940882,9.9325 28.0387353,11.1368529 27.4851765,12.9305882 L27.4851765,16.0634412 C28.0336176,17.8401176 29.8290588,19.0802941 31.8556471,19.0802941 C33.2195,19.0802941 34.4110588,18.5651176 35.2119706,17.6311471 L35.3492941,17.4707941 L35.3467353,19.7319412 C34.9765588,21.1137059 33.5965,22.0425588 31.9119412,22.0425588 C30.2802647,22.0425588 29.0383824,21.2987941 28.4916471,20.0006176 L27.4902941,20.4356176 C28.1675294,22.0382941 29.8537941,23.0302647 31.9119412,23.0302647 Z" id="Fill-6" fill="#FFFFFE"></path>
                <path d="M41.8964706,16.5385294 C42.2632353,15.8246176 43.1912353,15.3887647 44.8169412,15.167 C46.4929706,14.9307353 47.2981471,14.7123824 47.5966765,14.4138529 L47.7297353,14.2816471 L47.7297353,17.3889118 L47.7195,17.4076765 C47.1599706,18.3646765 45.9607353,18.9600294 44.5875,18.9600294 C43.0061471,18.9600294 42.2538529,18.3382353 41.9007353,17.8179412 L41.8879412,17.7983235 L41.8964706,16.5385294 Z M44.4766176,19.9110588 C45.7483529,19.9110588 46.8682647,19.4419412 47.6299412,18.5898529 L47.7664118,18.4380294 L47.7664118,19.6517647 L48.7541176,19.6517647 L48.7541176,12.2883235 C48.2679412,11.1138235 46.8563235,9.9325 44.7905,9.9325 C43.0257647,9.9325 41.3480294,10.9602941 40.6835882,12.4401471 L41.5945294,12.9032941 C42.1011765,11.7322059 43.4019118,10.9219118 44.7905,10.9219118 C46.1441176,10.9219118 47.2955882,11.5855 47.7229118,12.6124412 L47.7297353,12.6422941 L47.7297353,13.4594118 L47.7169412,13.4790294 C47.4550882,13.8807647 46.3684412,14.0487941 44.6165,14.2893235 C42.5933235,14.5469118 41.3369412,15.1840588 40.8814706,16.1845588 L40.8814706,18.1787353 C41.4572059,19.2312647 42.8645588,19.9110588 44.4766176,19.9110588 Z" id="Fill-7" fill="#FFFFFE"></path>
                <polygon id="Fill-8" fill="#FFFFFE" points="53.5783529 19.6517647 54.6027353 19.6517647 54.6027353 10.2097059 53.5783529 10.2097059"></polygon>
                <path d="M54.9353824,6.77320588 C54.7963529,6.51732353 54.4449412,6.33394118 54.0901176,6.33394118 C53.7352941,6.33394118 53.3830294,6.51732353 53.2457059,6.77320588 L53.2457059,7.54767647 C53.3830294,7.80270588 53.7352941,7.98694118 54.0901176,7.98694118 C54.4449412,7.98694118 54.7963529,7.80270588 54.9353824,7.54767647 L54.9353824,6.77320588" id="Fill-9" fill="#FFFFFE"></path>
                <path d="M63.3035882,10.9219118 C64.757,10.9219118 65.8521765,11.5377353 66.3102059,12.6124412 L66.3161765,12.6422941 L66.3161765,19.6517647 L67.3414118,19.6517647 L67.3414118,12.2516471 C66.7545882,10.8425882 65.2440294,9.9325 63.4878235,9.9325 C62.2280294,9.9325 61.1703824,10.3768824 60.4266176,11.2170294 L60.2901471,11.3714118 L60.2901471,10.2097059 L59.3024412,10.2097059 L59.3024412,19.6517647 L60.3276765,19.6517647 L60.3302353,12.6951765 C60.6185294,11.6673824 61.8680882,10.9219118 63.3035882,10.9219118" id="Fill-10" fill="#FFFFFE"></path>
            </g>
        </g>
    </g>
</svg>