<?xml version="1.0" encoding="UTF-8" standalone="no"?>
<svg
   version="1.1"
   width="675"
   height="415"
   viewBox="0 0 24 24"
   fit=""
   preserveAspectRatio="xMidYMid meet"
   focusable="false"
   id="svg11"
   sodipodi:docname="eRCli-logo.svg"
   inkscape:version="1.1.1 (c3084ef, 2021-09-22)"
   xmlns:inkscape="http://www.inkscape.org/namespaces/inkscape"
   xmlns:sodipodi="http://sodipodi.sourceforge.net/DTD/sodipodi-0.dtd"
   xmlns:xlink="http://www.w3.org/1999/xlink"
   xmlns="http://www.w3.org/2000/svg"
   xmlns:svg="http://www.w3.org/2000/svg">
  <defs
     id="defs15">
    <linearGradient
       inkscape:collect="always"
       id="linearGradient2449">
      <stop
         style="stop-color:#009eff;stop-opacity:1;"
         offset="0"
         id="stop2445" />
      <stop
         style="stop-color:#00d2ff;stop-opacity:1"
         offset="1"
         id="stop2447" />
    </linearGradient>
    <linearGradient
       inkscape:collect="always"
       xlink:href="#linearGradient2449"
       id="linearGradient2451"
       x1="15.01805"
       y1="0.65639251"
       x2="15.236847"
       y2="23.484245"
       gradientUnits="userSpaceOnUse" />
  </defs>
  <sodipodi:namedview
     id="namedview13"
     pagecolor="#ffffff"
     bordercolor="#666666"
     borderopacity="1.0"
     inkscape:pageshadow="2"
     inkscape:pageopacity="0.0"
     inkscape:pagecheckerboard="true"
     showgrid="false"
     inkscape:zoom="0.79294386"
     inkscape:cx="218.8049"
     inkscape:cy="184.12401"
     inkscape:window-width="1469"
     inkscape:window-height="912"
     inkscape:window-x="0"
     inkscape:window-y="25"
     inkscape:window-maximized="0"
     inkscape:current-layer="svg11" />
  <rect
     style="fill:url(#linearGradient2451);fill-opacity:1;stroke-width:0.308282"
     id="rect123"
     width="21.85751"
     height="21.85751"
     x="1.3342187"
     y="1.0928755"
     inkscape:export-filename="/Users/samu/Projects/iOS/eRCli/Design/eRCli_20x20.png"
     inkscape:export-xdpi="5.0799999"
     inkscape:export-ydpi="5.0799999" />
  <path
     d="m 16.306614,4.7430794 h 3.23491 V 6.360535 h -3.23491 V 4.7430794 m 0,3.2349113 h 3.23491 v 1.6174551 h -3.23491 V 7.9779907 m 0,3.2349113 h 3.23491 v 1.617456 h -2.628365 l -0.606545,-0.727857 v -0.889599 m 3.23491,3.234912 v 1.617454 H 17.92407 c 0,-0.558022 -0.08088,-1.107957 -0.234533,-1.617454 h 1.851987 m -3.23491,1.617454 a 4.0436394,4.0436391 0 0 1 -4.04364,4.04364 4.0436394,4.0436391 0 0 1 -4.0436398,-4.04364 c 0,-1.326314 0.638895,-2.498967 1.6174554,-3.23491 V 6.360535 A 2.4261836,2.4261834 0 0 1 12.262974,3.9343516 2.4261836,2.4261834 0 0 1 14.689157,6.360535 v 6.469823 c 0.978563,0.735943 1.617457,1.908596 1.617457,3.23491 M 11.454245,8.7867186 v 4.9898504 c -0.946211,0.331577 -1.6174554,1.229266 -1.6174554,2.288699 a 2.4261836,2.4261834 0 0 0 2.4261844,2.426183 2.4261836,2.4261834 0 0 0 2.426183,-2.426183 c 0,-1.059433 -0.671245,-1.957122 -1.617455,-2.288699 V 8.7867186 H 11.454245 M 8.2193342,4.7430794 V 6.360535 H 4.9844227 V 4.7430794 h 3.2349115 m 0,3.2349113 V 9.5954458 H 4.9844227 V 7.9779907 h 3.2349115 m 0,3.2349113 v 0.889599 L 7.6127884,12.830358 H 4.9844227 V 11.212902 H 8.2193342 M 4.9844227,14.447814 H 6.8364096 C 6.6827512,14.957311 6.6018785,15.507246 6.6018785,16.065268 H 4.9844227 Z"
     fill="#ffffff"
     id="path9"
     style="stroke-width:0.808731"
     inkscape:export-filename="/Users/samu/Projects/iOS/eRCli/Design/eRCli_1024x1024.png"
     inkscape:export-xdpi="260.10001"
     inkscape:export-ydpi="260.10001" />
</svg>
